<svg width="200" height="199" viewBox="0 0 200 199" fill="none" xmlns="http://www.w3.org/2000/svg">
<path fill-rule="evenodd" clip-rule="evenodd" d="M104.72 3.00525L181.832 21.5648L190.796 158.238L65.7575 198.955L3.01978 143.03L22.7254 38.2948L104.72 3.00525ZM104.908 5.21077L24.5827 39.7819L5.30326 142.252L66.2544 196.584L188.594 156.747L179.837 23.2449L104.908 5.21077Z" fill="url(#paint0_linear)"/>
<path fill-rule="evenodd" clip-rule="evenodd" d="M141.298 0L189.314 37.5788L200 172.034L93.2598 198.319L0 161.974L36.3437 10.633L141.298 0ZM37.1908 11.6027L1.23505 161.328L93.3314 197.22L198.882 171.228L188.304 38.1216L140.984 1.08736L37.1908 11.6027Z" fill="url(#paint1_linear)"/>
<g filter="url(#filter0_d)">
<path d="M67.5887 42.6869C69.8229 41.2982 72.722 40.2113 75.0165 42.1435C79.9677 46.3702 77.4921 55.3074 74.4127 59.8964C71.8766 63.5805 68.2529 66.8411 64.3885 68.5318C63.3017 68.9544 62.2148 69.3771 61.1883 69.6186C66.865 76.5633 70.4275 95.7662 80.029 96.9135C80.6932 97.0342 80.5724 97.7588 79.9686 97.7588C68.0122 98.3022 64.8724 77.0464 58.4712 69.9205C56.9013 69.9205 55.3917 69.6186 54.0021 69.0752C52.6134 74.3284 49.1104 87.9158 44.2799 90.9349C41.442 92.686 38.6636 91.8406 38.1814 88.5196C37.2153 81.9976 42.8308 76.0199 47.7829 72.5773C48.3263 72.215 48.8697 73.0604 48.3867 73.4226C43.6761 76.6229 38.2418 82.2392 39.1475 88.3385C39.5098 91.0557 41.1401 91.2972 42.8316 89.3046C45.9714 85.9836 48.7498 76.8652 49.9574 72.5169C51.8293 66.0553 53.2784 59.0511 53.8831 53.4348C54.0038 52.3479 54.6076 48.4835 54.3661 46.1278C54.2453 44.256 53.5811 43.1691 51.9508 45.2825C50.1394 47.4562 48.6903 49.9319 47.3015 52.3479C46.9392 52.8914 46.0939 52.3479 46.4562 51.8045C47.9053 49.328 49.4148 46.6713 51.2867 44.4975C53.8839 41.4776 55.6349 42.1427 56.5406 44.4372C57.5671 47.0939 57.2652 50.8988 56.9029 53.7367C59.678 49.8731 63.6036 45.2229 67.5887 42.6869ZM54.1833 68.1099C55.2098 68.593 56.2362 68.8345 57.3231 68.8345C57.0212 68.6534 56.6589 68.4722 56.2362 68.2911C55.8136 68.1703 55.8739 67.5053 56.357 67.3845C57.7458 67.0223 58.9534 67.5053 59.9799 68.4714C60.5233 68.2903 61.0063 68.1091 61.4894 67.8676C65.4746 66.1165 69.3398 62.6748 71.8154 58.6284C74.3515 54.764 76.043 46.6721 72.7815 43.4719C71.5739 42.2643 69.9436 42.385 68.0114 43.5927C63.7839 46.3702 59.3761 51.6846 56.6589 55.7905C56.0551 59.5954 55.2702 63.822 54.1833 68.1099Z" fill="white"/>
<path d="M83.0438 67.2645C84.3118 66.6607 85.8222 66.6004 86.9695 67.4457C88.2375 68.2306 89.0224 69.8005 89.0828 72.2158C89.0828 74.3291 88.6601 76.6236 87.9355 78.5567C89.9281 78.0132 92.0415 76.383 93.7934 73.5442C94.1557 73.0008 95.001 73.5442 94.6991 74.0272C93.0084 76.684 90.5932 79.0993 87.4525 79.7039C86.9091 81.0323 86.0637 82.2399 84.9165 83.2672C83.2862 84.5956 80.8709 85.441 79.0587 83.8711C77.0661 82.1804 77.1265 78.3764 77.7907 76.081C78.2133 74.5715 78.9379 73.0016 80.0248 71.9147C80.4466 69.559 81.6551 67.9891 83.0438 67.2645ZM86.3044 79.8247C84.2515 79.8851 82.1985 78.9794 80.99 77.2283C80.7485 78.5567 80.6881 80.4889 81.2919 81.938C81.8957 83.388 82.9826 83.5088 84.1298 82.6626C84.976 81.9984 85.7006 81.0323 86.3044 79.8247ZM81.2928 75.8999C82.3192 78.0132 84.493 79.0397 86.7875 78.7982C87.5733 76.8056 88.1158 74.3291 88.1158 72.2158C88.1158 70.1628 87.3913 68.8345 86.4252 68.2306C85.5798 67.6268 84.493 67.6872 83.526 68.1702C82.6203 68.5929 81.8354 69.4987 81.3523 70.7063C82.5599 69.9817 83.9487 69.7402 85.2779 70.1628C85.8214 70.344 85.8214 71.0082 85.2779 71.1289C83.4665 71.4912 82.3193 73.3027 81.5938 74.933C81.4731 75.2349 81.3523 75.5972 81.2928 75.8999Z" fill="white"/>
<path d="M108.887 73.9678C106.894 78.1341 104.479 82.9654 100.493 85.1391C97.5948 86.7694 94.273 85.9241 92.8239 83.0862C90.5898 78.618 93.6097 70.9487 97.5345 68.775C99.9497 67.507 102.788 68.0504 104.177 70.526C104.479 71.1299 103.634 71.5525 103.332 71.0091C102.004 68.7741 99.5883 69.4383 98.0779 71.1902C95.9042 73.7866 94.5154 79.4029 95.4211 81.9389C96.3268 84.4749 98.4402 85.2004 100.614 83.8711C104.116 81.7578 106.291 77.2292 107.981 73.5451C108.283 73.0008 109.19 73.3631 108.887 73.9678Z" fill="white"/>
<path d="M123.076 73.9678C121.083 78.1341 118.668 82.9654 114.682 85.1391C111.784 86.7694 108.462 85.9241 107.013 83.0862C104.779 78.618 107.799 70.9487 111.723 68.775C114.139 67.507 116.977 68.0504 118.366 70.526C118.668 71.1299 117.823 71.5525 117.521 71.0091C116.192 68.7741 113.777 69.4383 112.267 71.1902C110.093 73.7866 108.704 79.4029 109.61 81.9389C110.516 84.4749 112.629 85.2004 114.803 83.8711C118.305 81.7578 120.479 77.2292 122.17 73.5451C122.472 73.0008 123.379 73.3631 123.076 73.9678Z" fill="white"/>
<path d="M126.214 67.2645C127.482 66.6607 128.992 66.6004 130.139 67.4457C131.407 68.2306 132.192 69.8005 132.253 72.2158C132.253 74.3291 131.83 76.6236 131.106 78.5567C133.098 78.0132 135.211 76.383 136.963 73.5442C137.326 73.0008 138.171 73.5442 137.869 74.0272C136.178 76.684 133.763 79.0993 130.623 79.7039C130.079 81.0323 129.234 82.2399 128.087 83.2672C126.456 84.5956 124.041 85.441 122.229 83.8711C120.236 82.1804 120.296 78.3764 120.961 76.081C121.383 74.5715 122.108 73.0016 123.195 71.9147C123.617 69.559 124.825 67.9891 126.214 67.2645ZM129.475 79.8247C127.422 79.8851 125.369 78.9794 124.161 77.2283C123.919 78.5567 123.859 80.4889 124.463 81.938C125.067 83.388 126.153 83.5088 127.301 82.6626C128.146 81.9984 128.871 81.0323 129.475 79.8247ZM124.463 75.8999C125.489 78.0132 127.663 79.0397 129.957 78.7982C130.743 76.8056 131.286 74.3291 131.286 72.2158C131.286 70.1628 130.561 68.8345 129.595 68.2306C128.75 67.6268 127.663 67.6872 126.696 68.1702C125.79 68.5929 125.005 69.4987 124.522 70.7063C125.73 69.9817 127.119 69.7402 128.448 70.1628C128.991 70.344 128.991 71.0082 128.448 71.1289C126.637 71.4912 125.489 73.3027 124.764 74.933C124.644 75.2349 124.523 75.5972 124.463 75.8999Z" fill="white"/>
<path d="M154.323 98.8044C152.438 103.268 149.844 107.23 146.543 109.494C144.304 110.94 140.531 111.317 138.528 108.991C136.583 106.79 136.642 102.954 137.29 100.125C137.938 97.6727 139.412 94.7797 141.475 93.3336C144.893 91.0073 148.488 93.5851 146.602 97.7356C145.365 100.439 142.654 101.885 139.942 102.325C139.706 104.274 139.765 108.111 141.828 109.054C143.007 109.619 144.716 109.494 146.013 108.676C149.195 106.475 151.789 102.262 153.498 98.3015C153.793 97.7356 154.618 98.2386 154.323 98.8044ZM145.718 97.4212C146.72 95.0941 145.777 92.2648 142.772 95.4722C141.357 96.9811 140.414 99.1188 140.06 101.257C142.3 100.88 144.658 99.6856 145.718 97.4212Z" fill="white"/>
<path d="M86.1099 118.215C87.6798 123.649 91.7866 127.877 94.5037 132.769C96.3152 136.15 97.3416 141.102 96.4359 145.932C95.7113 149.797 93.7188 153.662 89.9743 156.5C82.2447 162.418 72.7036 155.715 74.3339 146.053C75.1792 140.619 80.554 135.546 85.8675 133.855C86.5317 133.614 86.8336 134.58 86.2902 134.761C81.157 136.331 75.7226 141.403 75.1188 146.657C74.3339 154.326 81.037 160.606 87.3779 155.775C90.9404 153.058 92.7518 149.495 93.416 145.872C94.2614 141.223 93.3556 136.512 91.5442 133.252C89.0686 128.783 85.5656 124.978 83.6334 120.148C82.1834 116.223 82.4258 111.633 84.9014 108.131C88.1016 103.482 94.8048 102.032 98.7304 106.199C100.964 108.614 101.991 112.359 100.964 116.284C100.783 116.887 99.8777 116.706 99.9984 116.102C100.965 112.661 100.119 109.037 98.1861 106.803C94.6236 103.179 89.1281 106.078 87.0752 109.822C85.6872 112.418 85.3249 115.498 86.1099 118.215Z" fill="white"/>
<path d="M107.483 129.991C108.751 129.387 110.262 129.327 111.409 130.172C112.677 130.957 113.462 132.527 113.522 134.942C113.522 137.056 113.1 139.35 112.375 141.283C114.368 140.74 116.481 139.109 118.233 136.271C118.595 135.727 119.44 136.271 119.139 136.754C117.448 139.41 115.033 141.826 111.892 142.43C111.348 143.759 110.503 144.966 109.356 145.994C107.726 147.322 105.31 148.167 103.498 146.598C101.505 144.907 101.566 141.103 102.23 138.807C102.653 137.298 103.377 135.728 104.464 134.641C104.887 132.285 106.095 130.716 107.483 129.991ZM110.745 142.551C108.692 142.612 106.639 141.706 105.43 139.955C105.189 141.283 105.128 143.215 105.732 144.664C106.336 146.114 107.423 146.235 108.57 145.389C109.416 144.725 110.141 143.759 110.745 142.551ZM105.733 138.626C106.76 140.74 108.933 141.766 111.228 141.525C112.014 139.532 112.556 137.056 112.556 134.942C112.556 132.889 111.832 131.561 110.865 130.957C110.02 130.353 108.933 130.414 107.966 130.897C107.061 131.319 106.276 132.225 105.793 133.433C107 132.708 108.389 132.467 109.718 132.889C110.262 133.07 110.262 133.735 109.718 133.855C107.907 134.218 106.76 136.029 106.034 137.659C105.913 137.961 105.793 138.324 105.733 138.626Z" fill="white"/>
<path d="M128.255 149.677C129.463 149.798 132.24 144.664 132.784 143.397C133.931 140.982 135.018 138.204 135.863 136.272C136.105 135.668 136.95 136.03 136.769 136.634C135.923 138.566 134.837 141.344 133.629 143.82C132.722 145.692 129.281 152.636 126.805 150.523C125.839 149.799 125.296 147.987 125.416 145.451C125.597 141.707 126.805 138.446 127.469 135.306C127.711 134.038 127.952 132.71 128.013 131.442C128.133 129.027 127.167 129.872 126.262 131.321C124.329 134.34 122.518 138.628 120.948 142.492C120.465 143.579 120.042 144.485 119.68 145.572C119.257 146.719 116.903 147.263 116.601 145.21C116.601 144.062 117.929 136.453 118.715 132.589C118.896 131.744 119.017 131.019 119.077 130.536C119.379 129.027 122.338 129.812 122.157 130.657C121.673 133.797 120.768 138.628 120.164 141.768C121.673 138.084 123.425 134.038 125.236 131.08C126.625 128.725 129.162 127.395 130.55 130.657C130.913 131.744 130.792 133.495 130.43 135.427C129.765 139.291 128.256 142.854 127.773 146.659C127.53 148.529 127.651 149.677 128.255 149.677Z" fill="white"/>
<path d="M137.915 142.008C137.674 145.993 138.036 147.805 140.512 144.242C142.384 141.585 144.196 137.721 145.04 136.271C145.342 135.606 146.188 136.089 145.886 136.693C144.98 138.384 142.986 142.37 141.054 144.966C137.492 149.918 134.956 146.899 135.136 141.826C135.257 138.082 135.921 134.278 136.948 130.896C137.249 129.507 139.666 129.749 139.967 131.198C139.425 133.191 138.216 137.961 137.915 142.008ZM139.243 129.326C138.398 129.326 137.613 128.783 137.613 127.696C137.613 126.79 138.398 126.126 139.062 126.065C139.847 126.005 140.632 126.669 140.632 127.696C140.632 128.783 139.968 129.266 139.243 129.326Z" fill="white"/>
<path d="M157.539 132.95C156.996 135.668 155.486 140.679 155.426 144.363C155.366 146.597 156.03 148.288 158.022 144.966C159.592 142.249 160.981 139.169 162.189 136.271C162.491 135.667 163.336 136.029 163.094 136.633C161.826 139.592 160.498 142.612 158.867 145.51C156.753 149.194 153.854 149.435 153.069 145.148C152.586 142.189 153.069 138.988 153.673 136.271C151.681 139.17 149.989 141.223 148.661 142.612C147.574 143.698 144.977 146.053 143.648 143.94C143.226 143.215 143.105 142.068 143.346 140.678C143.95 136.754 148.177 129.386 152.465 131.137C153.25 131.439 153.914 131.983 154.397 132.587C154.638 131.682 154.88 130.957 155.001 130.655C155.365 129.689 158.083 130.232 157.539 132.95ZM148.119 141.827C149.628 140.257 151.561 137.66 154.097 133.795C153.734 133.191 153.312 132.648 152.768 132.346C149.689 130.534 146.729 139.049 146.307 141.404C145.945 143.578 146.609 143.276 148.119 141.827Z" fill="white"/>
</g>
<defs>
<filter id="filter0_d" x="34.072" y="39.0992" width="133.065" height="125.627" filterUnits="userSpaceOnUse" color-interpolation-filters="sRGB">
<feFlood flood-opacity="0" result="BackgroundImageFix"/>
<feColorMatrix in="SourceAlpha" type="matrix" values="0 0 0 0 0 0 0 0 0 0 0 0 0 0 0 0 0 0 127 0"/>
<feOffset dy="2"/>
<feGaussianBlur stdDeviation="2"/>
<feColorMatrix type="matrix" values="0 0 0 0 0 0 0 0 0 0 0 0 0 0 0 0 0 0 0.1 0"/>
<feBlend mode="normal" in2="BackgroundImageFix" result="effect1_dropShadow"/>
<feBlend mode="normal" in="SourceGraphic" in2="effect1_dropShadow" result="shape"/>
</filter>
<linearGradient id="paint0_linear" x1="87.3058" y1="3.00524" x2="87.3057" y2="198.955" gradientUnits="userSpaceOnUse">
<stop stop-color="#FDFCE3"/>
<stop offset="1" stop-color="#D6D2B9"/>
</linearGradient>
<linearGradient id="paint1_linear" x1="89.7727" y1="-8.43533e-06" x2="89.7727" y2="198.319" gradientUnits="userSpaceOnUse">
<stop stop-color="#FDFCE3"/>
<stop offset="1" stop-color="#D6D2B9"/>
</linearGradient>
</defs>
</svg>
